<svg width="112" height="112" viewBox="0 0 112 112" fill="none" xmlns="http://www.w3.org/2000/svg">
  <ellipse cx="56" cy="100" rx="28" ry="7" fill="#00000024"/>
  <path d="M18 64L32 40H78L92 62V78H18V64Z" fill="#9A3412"/>
  <path d="M32 40L44 20H70L78 40H32Z" fill="#C2410C"/>
  <path d="M45 18L40 10L49 14L45 18Z" fill="#78350F"/>
  <path d="M69 18L74 10L65 14L69 18Z" fill="#78350F"/>
  <circle cx="50" cy="27" r="2.2" fill="#111827"/>
  <circle cx="61" cy="27" r="2.2" fill="#111827"/>
  <path d="M49 33H65L57 40L49 33Z" fill="#111827"/>
  <path d="M65 35L88 32L90 36L66 40L65 35Z" fill="#FCD34D"/>
  <path d="M26 78H42L35 95H24L26 78Z" fill="#78350F"/>
  <path d="M70 78H86L83 95H68L70 78Z" fill="#78350F"/>
  <rect x="32" y="44" width="3" height="29" fill="#7C2D12"/>
  <rect x="46" y="44" width="3" height="29" fill="#7C2D12"/>
  <rect x="60" y="44" width="3" height="29" fill="#7C2D12"/>
  <rect x="74" y="44" width="3" height="29" fill="#7C2D12"/>
</svg>
