<svg width="112" height="112" viewBox="0 0 112 112" fill="none" xmlns="http://www.w3.org/2000/svg">
  <ellipse cx="56" cy="100" rx="28" ry="7" fill="#00000024"/>
  <path d="M20 64L34 42H80L94 64V78H20V64Z" fill="#B45309"/>
  <path d="M34 42L44 24H70L80 42H34Z" fill="#D97706"/>
  <path d="M46 20L42 12L50 16L46 20Z" fill="#78350F"/>
  <path d="M68 20L72 12L64 16L68 20Z" fill="#78350F"/>
  <circle cx="52" cy="29" r="2" fill="#111827"/>
  <circle cx="62" cy="29" r="2" fill="#111827"/>
  <path d="M50 35H64L58 39L50 35Z" fill="#111827"/>
  <rect x="34" y="46" width="3" height="29" fill="#7C2D12"/>
  <rect x="48" y="46" width="3" height="29" fill="#7C2D12"/>
  <rect x="62" y="46" width="3" height="29" fill="#7C2D12"/>
  <rect x="76" y="46" width="3" height="29" fill="#7C2D12"/>
  <path d="M26 78H40V94H26V78Z" fill="#78350F"/>
  <path d="M72 78H86V94H72V78Z" fill="#78350F"/>
</svg>
